<mxfile host="app.diagrams.net" modified="2021-11-15T07:44:39.737Z" agent="5.0 (Windows NT 10.0; WOW64) AppleWebKit/537.36 (KHTML, like Gecko) Chrome/95.0.4638.69 Safari/537.36" etag="SnyyCeYM08lobges99Hc" version="15.7.3" type="github">
  <diagram id="6g_Fd1ajQckZ7Yqp9gsq" name="Page-1">
    <mxGraphModel dx="1422" dy="1875" grid="1" gridSize="10" guides="1" tooltips="1" connect="1" arrows="1" fold="1" page="1" pageScale="1" pageWidth="827" pageHeight="1169" math="0" shadow="0">
      <root>
        <mxCell id="0" />
        <mxCell id="1" parent="0" />
        <mxCell id="FIAnAyh_88PYfkYXIVhB-5" style="edgeStyle=orthogonalEdgeStyle;rounded=0;orthogonalLoop=1;jettySize=auto;html=1;exitX=1;exitY=0.5;exitDx=0;exitDy=0;entryX=0;entryY=0.5;entryDx=0;entryDy=0;" parent="1" source="FIAnAyh_88PYfkYXIVhB-1" target="RUSnrg1oQo-M4RbumIp_-7" edge="1">
          <mxGeometry relative="1" as="geometry">
            <mxPoint x="404" as="targetPoint" />
          </mxGeometry>
        </mxCell>
        <mxCell id="FIAnAyh_88PYfkYXIVhB-1" value="NotchFilter" style="rounded=0;whiteSpace=wrap;html=1;" parent="1" vertex="1">
          <mxGeometry x="254" y="-30" width="90" height="60" as="geometry" />
        </mxCell>
        <mxCell id="RUSnrg1oQo-M4RbumIp_-3" value="" style="endArrow=classic;html=1;rounded=0;entryX=0;entryY=0.5;entryDx=0;entryDy=0;exitX=1;exitY=0.5;exitDx=0;exitDy=0;" parent="1" source="qoE_y93I6-oWgTe839o0-49" target="FIAnAyh_88PYfkYXIVhB-1" edge="1">
          <mxGeometry width="50" height="50" relative="1" as="geometry">
            <mxPoint x="174" as="sourcePoint" />
            <mxPoint x="204" y="-0.29000000000002046" as="targetPoint" />
          </mxGeometry>
        </mxCell>
        <mxCell id="RUSnrg1oQo-M4RbumIp_-4" value="raw_error" style="text;html=1;align=center;verticalAlign=middle;resizable=0;points=[];autosize=1;strokeColor=none;fillColor=none;" parent="1" vertex="1">
          <mxGeometry x="173" y="-27" width="70" height="20" as="geometry" />
        </mxCell>
        <mxCell id="RUSnrg1oQo-M4RbumIp_-8" style="edgeStyle=orthogonalEdgeStyle;rounded=0;orthogonalLoop=1;jettySize=auto;html=1;exitX=1;exitY=0.5;exitDx=0;exitDy=0;entryX=0;entryY=0.5;entryDx=0;entryDy=0;" parent="1" source="RUSnrg1oQo-M4RbumIp_-7" target="RUSnrg1oQo-M4RbumIp_-10" edge="1">
          <mxGeometry relative="1" as="geometry">
            <mxPoint x="542" y="0.14285714285711038" as="targetPoint" />
          </mxGeometry>
        </mxCell>
        <mxCell id="RUSnrg1oQo-M4RbumIp_-7" value="LowpassFilter" style="rounded=0;whiteSpace=wrap;html=1;" parent="1" vertex="1">
          <mxGeometry x="381" y="-30" width="103" height="60" as="geometry" />
        </mxCell>
        <mxCell id="RUSnrg1oQo-M4RbumIp_-10" value="PIleadCompensator" style="rounded=0;whiteSpace=wrap;html=1;" parent="1" vertex="1">
          <mxGeometry x="542" y="-30" width="120" height="60" as="geometry" />
        </mxCell>
        <mxCell id="RUSnrg1oQo-M4RbumIp_-11" value="" style="endArrow=classic;html=1;rounded=0;exitX=1;exitY=0.5;exitDx=0;exitDy=0;entryX=0;entryY=0.5;entryDx=0;entryDy=0;" parent="1" target="RUSnrg1oQo-M4RbumIp_-13" edge="1">
          <mxGeometry width="50" height="50" relative="1" as="geometry">
            <mxPoint x="662" y="-0.28999999999999204" as="sourcePoint" />
            <mxPoint x="723" y="-0.28999999999999204" as="targetPoint" />
          </mxGeometry>
        </mxCell>
        <mxCell id="RUSnrg1oQo-M4RbumIp_-12" value="fdbk_out" style="text;html=1;align=center;verticalAlign=middle;resizable=0;points=[];autosize=1;strokeColor=none;fillColor=none;" parent="1" vertex="1">
          <mxGeometry x="662" y="-27" width="60" height="20" as="geometry" />
        </mxCell>
        <mxCell id="RUSnrg1oQo-M4RbumIp_-13" value="" style="ellipse;whiteSpace=wrap;html=1;aspect=fixed;" parent="1" vertex="1">
          <mxGeometry x="728" y="-7" width="14" height="14" as="geometry" />
        </mxCell>
        <mxCell id="RUSnrg1oQo-M4RbumIp_-15" value="" style="endArrow=classic;html=1;rounded=0;exitX=1;exitY=0.5;exitDx=0;exitDy=0;" parent="1" edge="1" source="6ou-MsNmvMS3vPGDJ_Ky-21">
          <mxGeometry width="50" height="50" relative="1" as="geometry">
            <mxPoint x="513" y="-70" as="sourcePoint" />
            <mxPoint x="735" y="-7" as="targetPoint" />
            <Array as="points">
              <mxPoint x="620" y="-70" />
              <mxPoint x="735" y="-70" />
            </Array>
          </mxGeometry>
        </mxCell>
        <mxCell id="RUSnrg1oQo-M4RbumIp_-19" value="" style="group" parent="1" vertex="1" connectable="0">
          <mxGeometry x="742" y="-22" width="10" height="10" as="geometry" />
        </mxCell>
        <mxCell id="RUSnrg1oQo-M4RbumIp_-17" value="" style="endArrow=none;html=1;rounded=0;" parent="RUSnrg1oQo-M4RbumIp_-19" edge="1">
          <mxGeometry width="50" height="50" relative="1" as="geometry">
            <mxPoint x="5" y="10" as="sourcePoint" />
            <mxPoint x="5" as="targetPoint" />
          </mxGeometry>
        </mxCell>
        <mxCell id="RUSnrg1oQo-M4RbumIp_-18" value="" style="endArrow=none;html=1;rounded=0;" parent="RUSnrg1oQo-M4RbumIp_-19" edge="1">
          <mxGeometry width="50" height="50" relative="1" as="geometry">
            <mxPoint x="10" y="5" as="sourcePoint" />
            <mxPoint y="5" as="targetPoint" />
          </mxGeometry>
        </mxCell>
        <mxCell id="RUSnrg1oQo-M4RbumIp_-20" value="SlopeFilter" style="rounded=0;whiteSpace=wrap;html=1;" parent="1" vertex="1">
          <mxGeometry x="819" y="-30" width="80" height="60" as="geometry" />
        </mxCell>
        <mxCell id="RUSnrg1oQo-M4RbumIp_-21" value="" style="endArrow=classic;html=1;rounded=0;entryX=0;entryY=0.5;entryDx=0;entryDy=0;" parent="1" source="RUSnrg1oQo-M4RbumIp_-13" target="RUSnrg1oQo-M4RbumIp_-20" edge="1">
          <mxGeometry width="50" height="50" relative="1" as="geometry">
            <mxPoint x="743" as="sourcePoint" />
            <mxPoint x="783" as="targetPoint" />
          </mxGeometry>
        </mxCell>
        <mxCell id="RUSnrg1oQo-M4RbumIp_-22" value="SaturationLimit" style="rounded=0;whiteSpace=wrap;html=1;" parent="1" vertex="1">
          <mxGeometry x="930" y="-30" width="90" height="60" as="geometry" />
        </mxCell>
        <mxCell id="RUSnrg1oQo-M4RbumIp_-23" value="" style="endArrow=classic;html=1;rounded=0;exitX=1;exitY=0.5;exitDx=0;exitDy=0;entryX=0;entryY=0.5;entryDx=0;entryDy=0;" parent="1" source="RUSnrg1oQo-M4RbumIp_-20" target="RUSnrg1oQo-M4RbumIp_-22" edge="1">
          <mxGeometry width="50" height="50" relative="1" as="geometry">
            <mxPoint x="900.9999999999923" y="-0.2400000000000091" as="sourcePoint" />
            <mxPoint x="923" as="targetPoint" />
          </mxGeometry>
        </mxCell>
        <mxCell id="RUSnrg1oQo-M4RbumIp_-24" value="" style="endArrow=classic;html=1;rounded=0;exitX=1;exitY=0.5;exitDx=0;exitDy=0;entryX=0;entryY=0.5;entryDx=0;entryDy=0;" parent="1" source="RUSnrg1oQo-M4RbumIp_-22" target="qoE_y93I6-oWgTe839o0-50" edge="1">
          <mxGeometry width="50" height="50" relative="1" as="geometry">
            <mxPoint x="1043" as="sourcePoint" />
            <mxPoint x="1063" as="targetPoint" />
          </mxGeometry>
        </mxCell>
        <mxCell id="RUSnrg1oQo-M4RbumIp_-25" value="raw_out" style="text;html=1;align=center;verticalAlign=middle;resizable=0;points=[];autosize=1;strokeColor=none;fillColor=none;" parent="1" vertex="1">
          <mxGeometry x="755" y="-30" width="60" height="20" as="geometry" />
        </mxCell>
        <mxCell id="RUSnrg1oQo-M4RbumIp_-26" value="out" style="text;html=1;align=center;verticalAlign=middle;resizable=0;points=[];autosize=1;strokeColor=none;fillColor=none;" parent="1" vertex="1">
          <mxGeometry x="1025" y="-27" width="30" height="20" as="geometry" />
        </mxCell>
        <mxCell id="RUSnrg1oQo-M4RbumIp_-27" value="error" style="text;html=1;align=center;verticalAlign=middle;resizable=0;points=[];autosize=1;strokeColor=none;fillColor=none;" parent="1" vertex="1">
          <mxGeometry x="490" y="-27" width="40" height="20" as="geometry" />
        </mxCell>
        <mxCell id="qoE_y93I6-oWgTe839o0-24" value="&lt;b&gt;&lt;font style=&quot;font-size: 14px&quot;&gt;Pos Ctrl Loop&lt;/font&gt;&lt;/b&gt;" style="text;html=1;align=center;verticalAlign=middle;resizable=0;points=[];autosize=1;strokeColor=none;fillColor=none;" parent="1" vertex="1">
          <mxGeometry x="170" y="-80" width="110" height="20" as="geometry" />
        </mxCell>
        <mxCell id="qoE_y93I6-oWgTe839o0-25" style="edgeStyle=orthogonalEdgeStyle;rounded=0;orthogonalLoop=1;jettySize=auto;html=1;exitX=1;exitY=0.5;exitDx=0;exitDy=0;entryX=0;entryY=0.5;entryDx=0;entryDy=0;" parent="1" source="qoE_y93I6-oWgTe839o0-26" target="qoE_y93I6-oWgTe839o0-54" edge="1">
          <mxGeometry relative="1" as="geometry">
            <mxPoint x="410" y="200" as="targetPoint" />
          </mxGeometry>
        </mxCell>
        <mxCell id="qoE_y93I6-oWgTe839o0-26" value="LowpassFilter" style="rounded=0;whiteSpace=wrap;html=1;" parent="1" vertex="1">
          <mxGeometry x="254" y="170" width="90" height="60" as="geometry" />
        </mxCell>
        <mxCell id="qoE_y93I6-oWgTe839o0-27" value="" style="endArrow=classic;html=1;rounded=0;entryX=0;entryY=0.5;entryDx=0;entryDy=0;exitX=1;exitY=0.5;exitDx=0;exitDy=0;" parent="1" source="qoE_y93I6-oWgTe839o0-52" target="qoE_y93I6-oWgTe839o0-26" edge="1">
          <mxGeometry width="50" height="50" relative="1" as="geometry">
            <mxPoint x="174" y="200.00000000000023" as="sourcePoint" />
            <mxPoint x="204" y="199.70999999999998" as="targetPoint" />
          </mxGeometry>
        </mxCell>
        <mxCell id="qoE_y93I6-oWgTe839o0-28" value="raw_cmd" style="text;html=1;align=center;verticalAlign=middle;resizable=0;points=[];autosize=1;strokeColor=none;fillColor=none;" parent="1" vertex="1">
          <mxGeometry x="178" y="173" width="60" height="20" as="geometry" />
        </mxCell>
        <mxCell id="qoE_y93I6-oWgTe839o0-48" value="&lt;b&gt;&lt;font style=&quot;font-size: 14px&quot;&gt;Vel Ctrl Loop&lt;/font&gt;&lt;/b&gt;" style="text;html=1;align=center;verticalAlign=middle;resizable=0;points=[];autosize=1;strokeColor=none;fillColor=none;" parent="1" vertex="1">
          <mxGeometry x="175" y="120" width="100" height="20" as="geometry" />
        </mxCell>
        <mxCell id="qoE_y93I6-oWgTe839o0-49" value="lon_error" style="rounded=1;whiteSpace=wrap;html=1;fontSize=14;" parent="1" vertex="1">
          <mxGeometry x="100" y="-25" width="70" height="50" as="geometry" />
        </mxCell>
        <mxCell id="qoE_y93I6-oWgTe839o0-50" value="vel_cmd" style="rounded=1;whiteSpace=wrap;html=1;fontSize=14;" parent="1" vertex="1">
          <mxGeometry x="1070" y="-25" width="70" height="50" as="geometry" />
        </mxCell>
        <mxCell id="qoE_y93I6-oWgTe839o0-52" value="vel_cmd" style="rounded=1;whiteSpace=wrap;html=1;fontSize=14;" parent="1" vertex="1">
          <mxGeometry x="100" y="175" width="70" height="50" as="geometry" />
        </mxCell>
        <mxCell id="qoE_y93I6-oWgTe839o0-53" value="cmd" style="text;html=1;align=center;verticalAlign=middle;resizable=0;points=[];autosize=1;strokeColor=none;fillColor=none;" parent="1" vertex="1">
          <mxGeometry x="350" y="173" width="40" height="20" as="geometry" />
        </mxCell>
        <mxCell id="qoE_y93I6-oWgTe839o0-54" value="" style="ellipse;whiteSpace=wrap;html=1;aspect=fixed;" parent="1" vertex="1">
          <mxGeometry x="393" y="193" width="14" height="14" as="geometry" />
        </mxCell>
        <mxCell id="qoE_y93I6-oWgTe839o0-56" value="" style="endArrow=classic;html=1;rounded=0;entryX=0.5;entryY=1;entryDx=0;entryDy=0;exitX=1;exitY=0.5;exitDx=0;exitDy=0;" parent="1" target="qoE_y93I6-oWgTe839o0-54" edge="1" source="6ou-MsNmvMS3vPGDJ_Ky-23">
          <mxGeometry width="50" height="50" relative="1" as="geometry">
            <mxPoint x="300" y="257" as="sourcePoint" />
            <mxPoint x="400" y="220" as="targetPoint" />
            <Array as="points">
              <mxPoint x="400" y="280" />
              <mxPoint x="400" y="257" />
            </Array>
          </mxGeometry>
        </mxCell>
        <mxCell id="qoE_y93I6-oWgTe839o0-59" value="" style="endArrow=none;html=1;rounded=0;fontSize=14;" parent="1" edge="1">
          <mxGeometry width="50" height="50" relative="1" as="geometry">
            <mxPoint x="407" y="210" as="sourcePoint" />
            <mxPoint x="417" y="210" as="targetPoint" />
          </mxGeometry>
        </mxCell>
        <mxCell id="qoE_y93I6-oWgTe839o0-60" value="LowpassFilter" style="rounded=0;whiteSpace=wrap;html=1;" parent="1" vertex="1">
          <mxGeometry x="476" y="170" width="90" height="60" as="geometry" />
        </mxCell>
        <mxCell id="qoE_y93I6-oWgTe839o0-62" value="raw_error" style="text;html=1;align=center;verticalAlign=middle;resizable=0;points=[];autosize=1;strokeColor=none;fillColor=none;" parent="1" vertex="1">
          <mxGeometry x="404" y="173" width="70" height="20" as="geometry" />
        </mxCell>
        <mxCell id="6ou-MsNmvMS3vPGDJ_Ky-1" style="edgeStyle=orthogonalEdgeStyle;rounded=0;orthogonalLoop=1;jettySize=auto;html=1;entryX=0;entryY=0.5;entryDx=0;entryDy=0;exitX=1;exitY=0.5;exitDx=0;exitDy=0;" edge="1" parent="1" source="qoE_y93I6-oWgTe839o0-54" target="qoE_y93I6-oWgTe839o0-60">
          <mxGeometry relative="1" as="geometry">
            <mxPoint x="455.99999999999625" y="199.86" as="targetPoint" />
            <mxPoint x="410" y="200" as="sourcePoint" />
          </mxGeometry>
        </mxCell>
        <mxCell id="6ou-MsNmvMS3vPGDJ_Ky-2" style="edgeStyle=orthogonalEdgeStyle;rounded=0;orthogonalLoop=1;jettySize=auto;html=1;exitX=1;exitY=0.5;exitDx=0;exitDy=0;entryX=0;entryY=0.5;entryDx=0;entryDy=0;" edge="1" parent="1" source="qoE_y93I6-oWgTe839o0-60" target="6ou-MsNmvMS3vPGDJ_Ky-4">
          <mxGeometry relative="1" as="geometry">
            <mxPoint x="620" y="200" as="targetPoint" />
            <mxPoint x="580" y="199.8" as="sourcePoint" />
          </mxGeometry>
        </mxCell>
        <mxCell id="6ou-MsNmvMS3vPGDJ_Ky-3" value="error" style="text;html=1;align=center;verticalAlign=middle;resizable=0;points=[];autosize=1;strokeColor=none;fillColor=none;" vertex="1" parent="1">
          <mxGeometry x="572" y="173" width="40" height="20" as="geometry" />
        </mxCell>
        <mxCell id="6ou-MsNmvMS3vPGDJ_Ky-4" value="PIleadCompensator" style="rounded=0;whiteSpace=wrap;html=1;" vertex="1" parent="1">
          <mxGeometry x="622" y="170" width="120" height="60" as="geometry" />
        </mxCell>
        <mxCell id="6ou-MsNmvMS3vPGDJ_Ky-5" value="" style="endArrow=classic;html=1;rounded=0;exitX=1;exitY=0.5;exitDx=0;exitDy=0;entryX=0;entryY=0.5;entryDx=0;entryDy=0;" edge="1" parent="1" source="6ou-MsNmvMS3vPGDJ_Ky-4" target="6ou-MsNmvMS3vPGDJ_Ky-14">
          <mxGeometry width="50" height="50" relative="1" as="geometry">
            <mxPoint x="752" y="199.71000000000026" as="sourcePoint" />
            <mxPoint x="810" y="200" as="targetPoint" />
          </mxGeometry>
        </mxCell>
        <mxCell id="6ou-MsNmvMS3vPGDJ_Ky-6" value="fdbk_out" style="text;html=1;align=center;verticalAlign=middle;resizable=0;points=[];autosize=1;strokeColor=none;fillColor=none;" vertex="1" parent="1">
          <mxGeometry x="743" y="173" width="60" height="20" as="geometry" />
        </mxCell>
        <mxCell id="6ou-MsNmvMS3vPGDJ_Ky-8" value="NotchFilter" style="rounded=0;whiteSpace=wrap;html=1;" vertex="1" parent="1">
          <mxGeometry x="476" y="80" width="90" height="60" as="geometry" />
        </mxCell>
        <mxCell id="6ou-MsNmvMS3vPGDJ_Ky-9" value="target_acc_cmd" style="text;html=1;align=center;verticalAlign=middle;resizable=0;points=[];autosize=1;strokeColor=none;fillColor=none;" vertex="1" parent="1">
          <mxGeometry x="367" y="84" width="100" height="20" as="geometry" />
        </mxCell>
        <mxCell id="6ou-MsNmvMS3vPGDJ_Ky-10" style="edgeStyle=orthogonalEdgeStyle;rounded=0;orthogonalLoop=1;jettySize=auto;html=1;entryX=0;entryY=0.5;entryDx=0;entryDy=0;" edge="1" parent="1" target="6ou-MsNmvMS3vPGDJ_Ky-8">
          <mxGeometry relative="1" as="geometry">
            <mxPoint x="460" y="109.71" as="targetPoint" />
            <mxPoint x="356" y="110" as="sourcePoint" />
          </mxGeometry>
        </mxCell>
        <mxCell id="6ou-MsNmvMS3vPGDJ_Ky-12" value="leadCompensator" style="rounded=0;whiteSpace=wrap;html=1;" vertex="1" parent="1">
          <mxGeometry x="609" y="80" width="120" height="60" as="geometry" />
        </mxCell>
        <mxCell id="6ou-MsNmvMS3vPGDJ_Ky-13" style="edgeStyle=orthogonalEdgeStyle;rounded=0;orthogonalLoop=1;jettySize=auto;html=1;exitX=1;exitY=0.5;exitDx=0;exitDy=0;entryX=0;entryY=0.5;entryDx=0;entryDy=0;" edge="1" parent="1" source="6ou-MsNmvMS3vPGDJ_Ky-8" target="6ou-MsNmvMS3vPGDJ_Ky-12">
          <mxGeometry relative="1" as="geometry">
            <mxPoint x="620" y="110" as="targetPoint" />
            <mxPoint x="574" y="109.71" as="sourcePoint" />
          </mxGeometry>
        </mxCell>
        <mxCell id="6ou-MsNmvMS3vPGDJ_Ky-14" value="" style="ellipse;whiteSpace=wrap;html=1;aspect=fixed;" vertex="1" parent="1">
          <mxGeometry x="809" y="193" width="14" height="14" as="geometry" />
        </mxCell>
        <mxCell id="6ou-MsNmvMS3vPGDJ_Ky-16" value="" style="endArrow=classic;html=1;rounded=0;entryX=0.5;entryY=0;entryDx=0;entryDy=0;exitX=1;exitY=0.5;exitDx=0;exitDy=0;" edge="1" parent="1" source="6ou-MsNmvMS3vPGDJ_Ky-12" target="6ou-MsNmvMS3vPGDJ_Ky-14">
          <mxGeometry width="50" height="50" relative="1" as="geometry">
            <mxPoint x="676" y="143" as="sourcePoint" />
            <mxPoint x="816" y="190" as="targetPoint" />
            <Array as="points">
              <mxPoint x="816" y="110" />
            </Array>
          </mxGeometry>
        </mxCell>
        <mxCell id="6ou-MsNmvMS3vPGDJ_Ky-17" value="" style="group" vertex="1" connectable="0" parent="1">
          <mxGeometry x="822" y="183" width="10" height="10" as="geometry" />
        </mxCell>
        <mxCell id="6ou-MsNmvMS3vPGDJ_Ky-18" value="" style="endArrow=none;html=1;rounded=0;" edge="1" parent="6ou-MsNmvMS3vPGDJ_Ky-17">
          <mxGeometry width="50" height="50" relative="1" as="geometry">
            <mxPoint x="5" y="10" as="sourcePoint" />
            <mxPoint x="5" as="targetPoint" />
          </mxGeometry>
        </mxCell>
        <mxCell id="6ou-MsNmvMS3vPGDJ_Ky-19" value="" style="endArrow=none;html=1;rounded=0;" edge="1" parent="6ou-MsNmvMS3vPGDJ_Ky-17">
          <mxGeometry width="50" height="50" relative="1" as="geometry">
            <mxPoint x="10" y="5" as="sourcePoint" />
            <mxPoint y="5" as="targetPoint" />
          </mxGeometry>
        </mxCell>
        <mxCell id="6ou-MsNmvMS3vPGDJ_Ky-20" value="ffwd_out" style="text;html=1;align=center;verticalAlign=middle;resizable=0;points=[];autosize=1;strokeColor=none;fillColor=none;" vertex="1" parent="1">
          <mxGeometry x="744" y="84" width="60" height="20" as="geometry" />
        </mxCell>
        <mxCell id="6ou-MsNmvMS3vPGDJ_Ky-21" value="&lt;span style=&quot;font-size: 12px&quot;&gt;target_vel_cmd&lt;/span&gt;" style="rounded=1;whiteSpace=wrap;html=1;fontSize=14;" vertex="1" parent="1">
          <mxGeometry x="490" y="-95" width="107" height="50" as="geometry" />
        </mxCell>
        <mxCell id="6ou-MsNmvMS3vPGDJ_Ky-22" value="ffwd_out" style="text;html=1;align=center;verticalAlign=middle;resizable=0;points=[];autosize=1;strokeColor=none;fillColor=none;" vertex="1" parent="1">
          <mxGeometry x="639" y="-100" width="60" height="20" as="geometry" />
        </mxCell>
        <mxCell id="6ou-MsNmvMS3vPGDJ_Ky-23" value="vel" style="rounded=1;whiteSpace=wrap;html=1;fontSize=14;" vertex="1" parent="1">
          <mxGeometry x="266" y="255" width="70" height="50" as="geometry" />
        </mxCell>
        <mxCell id="6ou-MsNmvMS3vPGDJ_Ky-24" value="" style="endArrow=classic;html=1;rounded=0;entryX=0;entryY=0.5;entryDx=0;entryDy=0;exitX=1;exitY=0.5;exitDx=0;exitDy=0;" edge="1" parent="1" source="6ou-MsNmvMS3vPGDJ_Ky-14" target="6ou-MsNmvMS3vPGDJ_Ky-26">
          <mxGeometry width="50" height="50" relative="1" as="geometry">
            <mxPoint x="830" y="200" as="sourcePoint" />
            <mxPoint x="900" y="200" as="targetPoint" />
          </mxGeometry>
        </mxCell>
        <mxCell id="6ou-MsNmvMS3vPGDJ_Ky-25" value="raw_out" style="text;html=1;align=center;verticalAlign=middle;resizable=0;points=[];autosize=1;strokeColor=none;fillColor=none;" vertex="1" parent="1">
          <mxGeometry x="831" y="173" width="60" height="20" as="geometry" />
        </mxCell>
        <mxCell id="6ou-MsNmvMS3vPGDJ_Ky-26" value="SlopeFilter" style="rounded=0;whiteSpace=wrap;html=1;" vertex="1" parent="1">
          <mxGeometry x="910" y="170" width="80" height="60" as="geometry" />
        </mxCell>
      </root>
    </mxGraphModel>
  </diagram>
</mxfile>
